<svg width="21" height="21" viewBox="0 0 21 21" fill="none" xmlns="http://www.w3.org/2000/svg">
<path d="M19.2165 9.22321H4.87986L11.1433 2.95975C11.6439 2.45919 11.6439 1.63775 11.1433 1.13719C11.0246 1.01821 10.8835 0.923809 10.7283 0.859401C10.573 0.794993 10.4065 0.761841 10.2385 0.761841C10.0704 0.761841 9.90391 0.794993 9.74864 0.859401C9.59337 0.923809 9.45233 1.01821 9.33359 1.13719L0.875351 9.59543C0.756366 9.71417 0.661968 9.85521 0.597561 10.0105C0.533153 10.1657 0.5 10.3322 0.5 10.5003C0.5 10.6684 0.533153 10.8348 0.597561 10.9901C0.661968 11.1454 0.756366 11.2864 0.875351 11.4052L9.33359 19.8634C9.45242 19.9822 9.59349 20.0765 9.74874 20.1408C9.904 20.2051 10.0704 20.2382 10.2385 20.2382C10.4065 20.2382 10.5729 20.2051 10.7282 20.1408C10.8834 20.0765 11.0245 19.9822 11.1433 19.8634C11.2621 19.7446 11.3564 19.6035 11.4207 19.4482C11.485 19.293 11.5181 19.1266 11.5181 18.9585C11.5181 18.7905 11.485 18.6241 11.4207 18.4688C11.3564 18.3136 11.2621 18.1725 11.1433 18.0537L4.87986 11.7902H19.2165C19.9224 11.7902 20.5 11.2126 20.5 10.5067C20.5 9.80079 19.9224 9.22321 19.2165 9.22321Z" fill="#17171B"/>
</svg>
