<svg width="21" height="21" viewBox="0 0 21 21" fill="none" xmlns="http://www.w3.org/2000/svg">
<path d="M1.7835 9.22321H16.1201L9.85668 2.95975C9.35612 2.45919 9.35612 1.63775 9.85668 1.13719C9.97542 1.01821 10.1165 0.923809 10.2717 0.859401C10.427 0.794993 10.5935 0.761841 10.7615 0.761841C10.9296 0.761841 11.0961 0.794993 11.2514 0.859401C11.4066 0.923809 11.5477 1.01821 11.6664 1.13719L20.1246 9.59543C20.2436 9.71417 20.338 9.85521 20.4024 10.0105C20.4668 10.1657 20.5 10.3322 20.5 10.5003C20.5 10.6684 20.4668 10.8348 20.4024 10.9901C20.338 11.1454 20.2436 11.2864 20.1246 11.4052L11.6664 19.8634C11.5476 19.9822 11.4065 20.0765 11.2513 20.1408C11.096 20.2051 10.9296 20.2382 10.7615 20.2382C10.5935 20.2382 10.4271 20.2051 10.2718 20.1408C10.1166 20.0765 9.97551 19.9822 9.85668 19.8634C9.73785 19.7446 9.64359 19.6035 9.57929 19.4482C9.51498 19.293 9.48188 19.1266 9.48188 18.9585C9.48188 18.7905 9.51498 18.6241 9.57929 18.4688C9.64359 18.3136 9.73785 18.1725 9.85668 18.0537L16.1201 11.7902H1.7835C1.07757 11.7902 0.5 11.2126 0.5 10.5067C0.5 9.80079 1.07757 9.22321 1.7835 9.22321Z" fill="#17171B"/>
</svg>
